<?xml version="1.0" encoding="UTF-8"?>
<svg id="Layer_2" data-name="Layer 2" xmlns="http://www.w3.org/2000/svg" viewBox="0 0 1380.37 485.42">
  <defs>
    <style>
      .cls-1 {
        fill: #006860;
      }
    </style>
  </defs>
  <g id="Layer_1-2" data-name="Layer 1">
    <g>
      <path class="cls-1" d="M258.17,394.57c-8.66,7.89-19.24,14.41-31.46,19.37-12.28,4.99-27.68,7.52-45.76,7.52-22.12,0-41.71-5.36-58.22-15.93-16.46-10.53-29.36-24.97-38.33-42.93-8.9-17.78-13.41-38.06-13.41-60.28s4.5-42.1,13.38-60.23c8.95-18.31,21.93-33.12,38.57-44.02,16.72-10.95,36.78-16.51,59.63-16.51,7.15,0,14.07.54,20.58,1.6,0,0,17.6,3.1,35.94,13.19,19.78,10.88,45.62,29.7,67.67,66.62,2.45-15.72,6.54-24.76,12.35-38.93,3.96-9.67,8.6-18.89,13.87-27.69-2.76-4.25-3.35-5.14-3.45-5.28-14.51-19.76-39.74-39.95-65.77-52.6-24.14-11.72-52.55-17.66-84.43-17.66-26.65,0-51.25,4.72-73.14,14.02-21.87,9.29-40.88,22.38-56.53,38.88-15.68,16.54-28,36.21-36.63,58.47C4.38,254.5,0,278.82,0,304.47c0,35,7.61,66.48,22.61,93.55,14.96,27.01,36.08,48.56,62.75,64.04,26.68,15.5,57.93,23.36,92.88,23.36,21.41,0,41.71-3.32,60.33-9.87,18.7-6.57,35.8-15.51,50.83-26.57,13.11-9.65,24.32-20.21,33.36-31.43l-45.78-41.78c-6.01,6.58-12.33,12.89-18.81,18.8Z"/>
      <path class="cls-1" d="M943.28,323.43c-9.76-14.45-22.45-25.87-37.72-33.92-15.8-8.33-32.43-14.67-49.43-18.83-23.14-5.14-41.76-11.75-55.26-19.63-15.16-8.84-22.84-20.82-22.84-35.62,0-11.74,6.02-21.74,17.88-29.72,11.01-7.4,23.11-11.16,35.95-11.16,18.81,0,35.43,4.23,49.4,12.58,10.54,6.3,19.57,12.16,26.88,17.44l38.46-42.44c-3.83-3.63-9.12-7.98-15.78-12.98-9.5-7.12-22.46-13.8-38.51-19.85-15.89-5.97-35.87-9-59.38-9-28.24,0-51.85,4.91-70.19,14.59-18.18,9.6-31.97,22.33-40.98,37.85-9.05,15.59-13.64,33.04-13.64,51.87,0,25.28,8.37,46.13,24.87,61.96,17.04,16.36,38.88,27.95,64.91,34.45,28.55,6.96,49.86,14.47,63.33,22.32,15.16,8.84,22.84,21.37,22.84,37.24,0,9.95-3.21,18.64-9.54,25.85-5.95,6.76-13.48,11.93-22.39,15.37-1.41.54-3.36,1.26-5.8,1.99,0,0-9.84,2.92-20.96,3.06-8.82.11-54.28-4-102.3-44.8-5.89-5-14.42-12.78-23.78-23.45-2.22,8.57-4.93,16.95-8.22,25.07-4.91,12.09-10.89,23.5-17.85,34.19,6.38,6.91,9.75,10.55,10.06,10.88,2.82,2.65,22.48,17.87,35.82,26.82,13.07,8.78,28.64,16.02,46.26,21.54,17.62,5.52,38.17,8.32,61.09,8.32,24.78,0,47.41-4.69,67.27-13.93,19.7-9.18,35.51-21.87,46.98-37.74,11.31-15.64,17.05-33.71,17.05-53.72,0-23.31-4.87-42.35-14.47-56.61Z"/>
      <path class="cls-1" d="M672.75,230.71c-8.97-21.9-21.82-41.4-38.2-57.95-16.37-16.54-35.68-29.56-57.41-38.71-21.73-9.13-45.72-13.76-71.28-13.76s-49.65,4.63-71.57,13.77c-21.9,9.14-41.2,22.15-57.37,38.67-16.21,16.54-28.98,36.05-37.95,57.97-8.97,21.9-13.52,46.18-13.52,72.15s4.55,49.82,13.53,71.89c8.97,22.09,21.82,41.67,38.19,58.2,16.37,16.55,35.69,29.58,57.42,38.71,21.73,9.13,45.71,13.76,71.28,13.76s49.55-4.63,71.28-13.76c21.71-9.13,41.03-22.15,57.42-38.71,16.36-16.54,29.21-36.12,38.19-58.2,8.97-22.1,13.53-46.28,13.53-71.89s-4.55-50.23-13.52-72.15ZM595.73,358.45c-8.06,17.19-19.86,31.18-35.08,41.56-15.22,10.39-33.65,15.65-54.78,15.65s-39.57-5.27-54.78-15.65c-15.22-10.38-27.12-24.37-35.36-41.56-8.23-17.18-12.41-36.25-12.41-56.67s4.18-39.4,12.41-56.4c8.24-17.02,20.13-30.82,35.35-41.02,15.22-10.21,33.65-15.38,54.78-15.38s39.55,5.18,54.78,15.38c15.22,10.21,27.02,24.01,35.09,41.02,8.06,17.02,12.14,36,12.14,56.4s-4.09,39.48-12.15,56.67Z"/>
      <rect class="cls-1" x="1283.67" y="130" width="75.75" height="386.24"/>
      <polygon class="cls-1" points="1261.56 130 960.65 130 960.65 188.04 1077.23 188.04 1077.23 476.25 1145.51 476.25 1145.51 188.04 1261.56 188.04 1261.56 130"/>
      <path class="cls-1" d="M1254.72,71.08c10.09,8.55,20.18,17.09,30.27,25.64,1.25,1.06,1.75,2.74,1.29,4.31-.87,2.97-1.74,5.94-2.61,8.9,22.59.02,45.18.05,67.76.07-.88-3.15-1.76-6.29-2.64-9.43-.36-1.29.06-2.68,1.09-3.55,10.16-8.62,20.32-17.24,30.48-25.86-2.28-1.14-4.56-2.28-6.84-3.42-.98-.49-1.48-1.59-1.2-2.65,1.82-7,3.64-14,5.46-21.01-5.83,1.29-11.66,2.57-17.49,3.86-1.38.3-2.75-.53-3.12-1.89-.75-2.78-1.5-5.55-2.25-8.33-4.89,5.68-9.78,11.36-14.67,17.04-1.66,1.93-4.81.43-4.36-2.08,2.1-11.63,4.2-23.26,6.3-34.9-3.05,1.64-6.1,3.28-9.15,4.92-1.59.85-3.56.24-4.4-1.35-3.71-7.12-7.42-14.24-11.13-21.36-3.68,7.11-7.36,14.23-11.03,21.34-.8,1.55-2.7,2.15-4.25,1.35-3.09-1.6-6.17-3.2-9.26-4.8,2.06,11.61,4.13,23.22,6.19,34.83.44,2.47-2.66,3.95-4.3,2.05-4.86-5.63-9.72-11.27-14.58-16.9-.82,2.8-1.63,5.6-2.45,8.4-.35,1.21-1.59,1.94-2.82,1.67-5.88-1.32-11.76-2.64-17.65-3.96,1.82,7.07,3.64,14.15,5.47,21.22.25.96-.21,1.96-1.1,2.4-2.34,1.16-4.68,2.32-7.02,3.47Z"/>
    </g>
  </g>
</svg>