<?xml version="1.0" encoding="UTF-8"?>
<svg id="Layer_2" data-name="Layer 2" xmlns="http://www.w3.org/2000/svg" viewBox="0 0 57.33 57.33">
  <defs>
    <style>
      .cls-1 {
        fill: #1265a5;
        fill-rule: evenodd;
      }
    </style>
  </defs>
  <g id="Layer_1-2" data-name="Layer 1">
    <path class="cls-1" d="M28.56,57.33h.03s0,0,0,0h-.02s0,0,0,0ZM28.76,57.33h0,.03s-.02,0-.02,0ZM28.47,57.33h.03s-.02,0-.02,0h-.01ZM28.85,57.33h-.02.03s-.01,0-.01,0ZM28.39,57.33h.02s-.01,0-.01,0h0,0ZM28.94,57.33h-.01s.02,0,.02,0h0ZM29.04,57.33h0s.02,0,.02,0h-.02s0,0,0,0ZM28.28,57.33h.02s0,0,0,0h-.02s0,0,0,0ZM29.13,57.33h-.02s.03,0,.03,0h-.02s0,0,0,0ZM28.19,57.33h.03s-.02,0-.02,0h-.02s0,0,0,0ZM29.22,57.33h-.02s.03,0,.03,0h0ZM28.1,57.33h.03s-.02,0-.02,0h0s0,0,0,0ZM28,57.33h.03s0,0,0,0h-.02s0,0,0,0ZM29.31,57.33h0s.03,0,.03,0h-.02ZM27.91,57.32h.03s-.01,0-.01,0h-.02ZM29.41,57.32h-.01s.03,0,.03,0h-.02ZM29.5,57.32h-.02s.04,0,.04,0h-.01s0,0,0,0ZM27.82,57.32h.04s-.02,0-.02,0h-.01s0,0,0,0ZM27.74,57.32h.03s-.02,0-.02,0h-.02s.02,0,.02,0ZM29.59,57.32h-.02s.03,0,.03,0h.02s-.02,0-.02,0ZM29.68,57.32h-.01s.04,0,.04,0h-.03ZM27.63,57.31h.04s-.01,0-.01,0h-.03ZM27.54,57.31h.04s-.02,0-.02,0h-.02ZM29.77,57.31h-.02s.04,0,.04,0h-.02ZM27.46,57.31h.04s-.03,0-.03,0h0s0,0,0,0ZM29.87,57.31h-.03s.04,0,.04,0h0ZM27.34,57.3h.04s-.01,0-.01,0h-.03ZM29.96,57.3h-.01s.04,0,.04,0h-.03s0,0,0,0ZM27.26,57.3h.04s-.02,0-.02,0h-.02ZM30.05,57.3h-.02s.04,0,.04,0h-.02ZM27.18,57.3h.04s-.03,0-.03,0h-.01ZM30.14,57.3h-.03s.04,0,.04,0h-.01ZM30.23,57.29h-.04s.04,0,.04,0h.04s-.04,0-.04,0h0ZM27.11,57.29h.04s-.04,0-.04,0h-.04s.04,0,.04,0h0ZM30.32,57.29h-.02s.05,0,.05,0h-.03ZM26.98,57.28h.05s-.02,0-.02,0h-.03ZM26.9,57.28h.05s-.03,0-.03,0h-.02s0,0,0,0ZM30.42,57.28h-.03s.05,0,.05,0h-.02s0,0,0,0ZM26.82,57.27h.04s-.04,0-.04,0h-.04s.04,0,.04,0h0ZM30.51,57.28h-.04s.04,0,.04,0h.04s-.04,0-.04,0h0ZM30.6,57.27h-.01s.04,0,.04,0h-.03s0,0,0,0ZM26.71,57.27h.04s-.01,0-.01,0h-.03ZM26.63,57.26h.04s-.02,0-.02,0h-.02s0,0,0,0ZM30.69,57.26h-.02s.04,0,.04,0h-.02ZM26.54,57.26h.04s-.03,0-.03,0h0s0,0,0,0ZM30.78,57.26h-.03s.04,0,.04,0h0s0,0,0,0ZM26.44,57.25h.03s0,0,0,0h-.03ZM30.87,57.25h0s.03,0,.03,0h-.03ZM30.96,57.24h-.02s.03,0,.03,0h-.02ZM26.35,57.24h.03s-.02,0-.02,0h-.02s0,0,0,0ZM26.27,57.23h.03s-.02,0-.02,0h0ZM31.05,57.24h-.02s.03,0,.03,0h0ZM26.18,57.23h0s0,0,0,0h0s0,0,0,0ZM31.14,57.23h0s0,0,0,0h0s0,0,0,0ZM31.23,57.22h0s.02,0,.02,0h-.01s0,0,0,0ZM26.09,57.22h.02s0,0,0,0h-.01s0,0,0,0ZM26,57.21h.02s0,0,0,0h0ZM31.32,57.21h0s.02,0,.02,0h0ZM24.19,56.98C10.49,54.83,0,42.96,0,28.67,0,12.85,12.85,0,28.67,0s28.67,12.85,28.67,28.67c0,14.3-10.49,26.17-24.19,28.32v-20.03h6.68l1.27-8.29h-7.95v-5.38c0-2.27,1.11-4.48,4.67-4.48h3.61v-7.05s-3.28-.56-6.42-.56c-6.55,0-10.83,3.97-10.83,11.15v6.32h-7.28v8.29h7.28v20.03Z"/>
  </g>
</svg>