<?xml version="1.0" encoding="UTF-8"?>
<svg id="Layer_2" data-name="Layer 2" xmlns="http://www.w3.org/2000/svg" viewBox="0 0 243.41 250.81">
  <defs>
    <style>
      .cls-1 {
        fill: #00c9ff;
      }
    </style>
  </defs>
  <g id="Layer_1-2" data-name="Layer 1">
    <g>
      <g>
        <path class="cls-1" d="M24.05,55.38c3.1-.34,6.31.17,9.02,1.72,19.21,16.9,39.65,30.91,62.48,42.53,8.04,7.07,1.13,19.43-9.13,16.16-12.01-6.72-23.63-14.82-36.18-20.49-9.5-4.29-19.8-7.18-29.28-11.14-15.08-6.31-11.81-27.16,3.1-28.77Z"/>
        <path class="cls-1" d="M9.98,114.23c6.78-.8,17.3,1.87,24.47,1.67,4.54.12,9.2-.09,13.64.07,8.99.32,12.54,11.82,5.27,17.04-4.05,2.91-11.73,1.52-16.71,1.74-8.05.37-16.63,1.6-24.57,1.79-15.63.38-15.84-20.7-2.1-22.31Z"/>
        <g>
          <path class="cls-1" d="M120.71,152.88c4.35-.46,9.35,2.87,10.1,7.25,1.03,6.09-.33,13.52-.35,19.65-.05,14.67,1.39,27.27,3.61,41.68,1.33,8.64,5.33,17.58-1.66,24.85-9.18,9.55-25.52,2.9-25.69-10.27,1.61-12.39,5-25.35,5.74-37.79.7-11.73-1.47-26.61.04-37.74.54-3.97,4.31-7.21,8.21-7.62Z"/>
          <path class="cls-1" d="M153.24,134.43c1.46-.07,3.46.53,4.78,1.14,9.98,4.59,20.39,12.88,30.8,17.96,11.01,5.37,22.68,8.58,33.79,13.22,16.69,6.97,10.15,31.01-7.96,28.6-5.43-.72-14.28-9.88-18.94-13.57-15.48-12.25-31.11-21.71-48.51-31.01-6.12-5.75-2.27-15.93,6.04-16.35Z"/>
          <path class="cls-1" d="M89.08,134.42c9.15-.72,13.84,11.26,5.78,17.24-6.05,4.49-16.25,8.78-23.12,12.91-13.86,8.34-23.5,17.77-35.96,27.3-13.61,10.4-30.6-3.81-22.85-18.45,3.54-6.69,11.38-7.65,17.91-10.21,12.3-4.81,22.89-9.13,34.46-15.63,4.73-2.66,19.7-12.84,23.78-13.16Z"/>
          <path class="cls-1" d="M156.28,180.12c2.63-.45,5.35-.05,7.56,1.46,2.89,1.97,9.23,13.93,11.71,17.73,3.8,5.83,7.77,11.56,11.69,17.31,4.64,12.76-10.9,21.49-19.42,11.07-4.92-9.73-9.8-19.49-14.71-29.22-2.12-4.2-4.46-5.77-3.7-11.15.45-3.24,3.61-6.62,6.88-7.18Z"/>
          <path class="cls-1" d="M82.47,180.12c6.79-1.25,12.26,3.28,11.54,10.22-.37,3.63-7.52,14.85-9.6,18.95-2.48,4.87-7.92,18.65-11.78,21.17-9.18,6.02-20.51-3.18-16.62-13.54l21.11-32.92c1.39-1.55,3.2-3.48,5.35-3.88Z"/>
        </g>
      </g>
      <circle class="cls-1" cx="121.64" cy="14.89" r="14.9"/>
      <circle class="cls-1" cx="217.37" cy="70.15" r="14.89"/>
      <circle class="cls-1" cx="232.19" cy="125.42" r="11.22"/>
      <circle class="cls-1" cx="176.9" cy="29.68" r="11.22"/>
      <circle class="cls-1" cx="66.38" cy="29.68" r="11.2"/>
      <circle class="cls-1" cx="153.56" cy="106.99" r="9.41"/>
      <circle class="cls-1" cx="195.35" cy="125.39" r="9.39"/>
      <circle class="cls-1" cx="121.65" cy="88.54" r="9.38"/>
      <circle class="cls-1" cx="158.51" cy="61.59" r="9.38"/>
      <circle class="cls-1" cx="185.47" cy="88.55" r="9.38"/>
      <circle class="cls-1" cx="84.79" cy="61.6" r="9.37"/>
      <circle class="cls-1" cx="121.63" cy="51.71" r="9.36"/>
    </g>
  </g>
</svg>