<?xml version="1.0" encoding="UTF-8"?>
<svg id="Layer_2" data-name="Layer 2" xmlns="http://www.w3.org/2000/svg" viewBox="0 0 57.28 57.28">
  <defs>
    <style>
      .cls-1 {
        fill: #1265a5;
        fill-rule: evenodd;
      }
    </style>
  </defs>
  <g id="Layer_1-2" data-name="Layer 1">
    <path class="cls-1" d="M28.64,0c15.81,0,28.64,12.83,28.64,28.64s-12.83,28.64-28.64,28.64S0,44.44,0,28.64,12.83,0,28.64,0ZM28.64,10.74c-4.86,0-5.47.02-7.38.11-1.91.09-3.21.39-4.34.83-1.18.46-2.18,1.07-3.17,2.06-1,1-1.61,1.99-2.06,3.17-.44,1.14-.74,2.44-.83,4.34-.09,1.91-.11,2.52-.11,7.38s.02,5.47.11,7.38c.09,1.91.39,3.21.83,4.34.46,1.18,1.07,2.18,2.06,3.17,1,1,1.99,1.61,3.17,2.06,1.14.44,2.44.74,4.34.83,1.91.09,2.52.11,7.38.11s5.47-.02,7.38-.11c1.91-.09,3.21-.39,4.34-.83,1.18-.46,2.18-1.07,3.17-2.06,1-1,1.61-1.99,2.06-3.17.44-1.14.74-2.44.83-4.34.09-1.91.11-2.52.11-7.38s-.02-5.47-.11-7.38c-.09-1.91-.39-3.21-.83-4.34-.46-1.18-1.07-2.18-2.06-3.17-1-1-1.99-1.61-3.17-2.06-1.14-.44-2.44-.75-4.34-.83-1.91-.09-2.52-.11-7.38-.11ZM28.64,13.96c4.78,0,5.35.02,7.23.1,1.75.08,2.69.37,3.32.62.84.32,1.43.71,2.06,1.34.63.63,1.01,1.22,1.34,2.06.25.63.54,1.58.62,3.32.09,1.89.1,2.45.1,7.23s-.02,5.35-.1,7.23c-.08,1.75-.37,2.69-.62,3.32-.32.84-.71,1.43-1.34,2.06-.63.63-1.22,1.01-2.06,1.34-.63.25-1.58.54-3.32.62-1.89.09-2.45.1-7.23.1s-5.35-.02-7.23-.1c-1.75-.08-2.69-.37-3.32-.62-.84-.32-1.43-.71-2.06-1.34-.63-.63-1.01-1.22-1.34-2.06-.25-.63-.54-1.58-.62-3.32-.09-1.89-.1-2.45-.1-7.23s.02-5.35.1-7.23c.08-1.75.37-2.69.62-3.32.32-.84.71-1.43,1.34-2.06.63-.63,1.22-1.01,2.06-1.34.63-.25,1.58-.54,3.32-.62,1.89-.09,2.45-.1,7.23-.1h0ZM28.64,19.45c-5.08,0-9.19,4.12-9.19,9.19s4.12,9.19,9.19,9.19,9.19-4.12,9.19-9.19-4.12-9.19-9.19-9.19h0ZM28.64,34.61c-3.3,0-5.97-2.67-5.97-5.97s2.67-5.97,5.97-5.97,5.97,2.67,5.97,5.97-2.67,5.97-5.97,5.97ZM40.34,19.08c0,1.19-.96,2.15-2.15,2.15s-2.15-.96-2.15-2.15.96-2.15,2.15-2.15,2.15.96,2.15,2.15Z"/>
  </g>
</svg>