<?xml version="1.0" encoding="UTF-8"?>
<svg id="Layer_2" data-name="Layer 2" xmlns="http://www.w3.org/2000/svg" viewBox="0 0 57.28 57.28">
  <defs>
    <style>
      .cls-1 {
        fill: #1265a5;
        fill-rule: evenodd;
      }
    </style>
  </defs>
  <g id="Layer_1-2" data-name="Layer 1">
    <path class="cls-1" d="M28.64,0c15.81,0,28.64,12.83,28.64,28.64s-12.83,28.64-28.64,28.64S0,44.44,0,28.64,12.83,0,28.64,0ZM19.69,44.73v-22.37h-7.44v22.37h7.44ZM46.49,44.73v-12.83c0-6.87-3.67-10.07-8.56-10.07-3.94,0-5.71,2.17-6.7,3.69v-3.17h-7.43c.1,2.1,0,22.37,0,22.37h7.43v-12.49c0-.67.05-1.34.25-1.81.54-1.34,1.76-2.72,3.81-2.72,2.69,0,3.77,2.05,3.77,5.06v11.97h7.43ZM16.02,11.58c-2.54,0-4.21,1.67-4.21,3.86s1.61,3.86,4.11,3.86h.05c2.59,0,4.21-1.72,4.21-3.86-.05-2.19-1.61-3.86-4.16-3.86h0Z"/>
  </g>
</svg>