<?xml version="1.0" encoding="UTF-8"?>
<svg id="Layer_2" data-name="Layer 2" xmlns="http://www.w3.org/2000/svg" viewBox="0 0 57.33 57.33">
  <defs>
    <style>
      .cls-1 {
        fill: #1265a5;
        fill-rule: evenodd;
      }
    </style>
  </defs>
  <g id="Layer_1-2" data-name="Layer 1">
    <g>
      <polygon class="cls-1" points="28.95 26.26 21.43 15.51 17.42 15.51 26.74 28.83 27.91 30.51 27.91 30.51 35.88 41.91 39.89 41.91 30.12 27.94 28.95 26.26"/>
      <path class="cls-1" d="M28.67,0C12.83,0,0,12.83,0,28.67s12.83,28.67,28.67,28.67,28.67-12.84,28.67-28.67S44.5,0,28.67,0ZM34.65,43.79l-8.07-11.74-10.1,11.74h-2.61l11.55-13.43L13.87,13.55h8.81l7.64,11.12,9.57-11.12h2.61l-11.02,12.81h0l11.98,17.44h-8.81Z"/>
    </g>
  </g>
</svg>